<?xml version="1.0" standalone="no"?>
<!DOCTYPE svg PUBLIC "-//W3C//DTD SVG 20010904//EN"
 "http://www.w3.org/TR/2001/REC-SVG-20010904/DTD/svg10.dtd">
<svg version="1.0" xmlns="http://www.w3.org/2000/svg"
 width="1182.000000pt" height="1182.000000pt" viewBox="0 0 1182.000000 1182.000000"
 preserveAspectRatio="xMidYMid meet">
<metadata>
Created by potrace 1.14, written by Peter Selinger 2001-2017
</metadata>
<g transform="translate(0.000000,1182.000000) scale(0.100000,-0.100000)"
fill="#000000" stroke="none">
<path d="M8320 11565 c-107 -15 -158 -29 -211 -56 l-36 -18 4 -118 5 -118 -34
-22 -34 -23 3 -242 c2 -134 5 -252 8 -263 2 -11 14 -24 27 -30 23 -10 23 -11
28 -260 3 -154 1 -296 -7 -370 -6 -66 -11 -217 -10 -335 1 -322 -44 -676 -123
-965 -11 -38 -22 -86 -25 -105 -3 -19 -11 -53 -16 -75 -6 -22 -12 -64 -14 -95
-2 -30 -6 -65 -9 -77 -3 -13 -8 -33 -11 -44 -18 -84 -80 -213 -140 -294 -25
-33 -53 -71 -62 -85 -44 -67 -82 -129 -104 -165 -12 -22 -26 -42 -29 -45 -11
-9 -80 -108 -80 -114 0 -3 -17 -34 -38 -68 -21 -35 -60 -104 -86 -154 -25 -50
-62 -109 -80 -130 -19 -22 -48 -63 -65 -92 -17 -28 -52 -80 -79 -114 -27 -35
-53 -77 -59 -94 -12 -33 -134 -235 -181 -299 -91 -122 -164 -294 -184 -430
-12 -74 -13 -518 -8 -2565 4 -1684 9 -2486 17 -2510 18 -62 171 -277 262 -369
150 -152 351 -266 652 -369 185 -64 239 -76 489 -116 317 -51 601 -56 850 -16
63 10 161 24 217 30 111 12 162 25 353 93 227 80 302 116 476 229 141 92 241
176 314 260 76 90 170 253 170 295 0 16 6 72 13 124 11 75 12 377 8 1524 -3
787 -4 1738 -3 2115 4 840 -1 908 -84 1179 -73 240 -84 269 -147 401 -185 384
-281 559 -413 752 -41 59 -74 110 -74 113 0 3 -8 18 -19 33 -236 343 -491 812
-571 1050 -25 76 -34 127 -50 300 -10 114 -26 252 -34 307 -36 246 -37 296
-34 930 l3 629 25 6 25 6 1 259 0 258 -28 25 c-27 24 -27 28 -30 141 l-3 116
-46 23 c-77 38 -178 53 -394 57 -136 3 -230 0 -295 -10z"/>
<path d="M3025 11516 c-184 -22 -304 -69 -291 -114 2 -9 7 -58 11 -108 l6 -92
-34 -21 -34 -21 1 -256 1 -256 29 -23 29 -24 0 -273 c0 -281 -18 -940 -27
-993 -3 -16 -10 -77 -16 -135 -15 -146 -35 -266 -66 -395 -62 -262 -75 -323
-79 -382 -11 -133 -77 -307 -160 -418 -64 -85 -148 -212 -175 -265 -7 -14 -19
-32 -27 -40 -26 -28 -72 -97 -101 -151 -83 -156 -167 -297 -191 -324 -16 -16
-41 -52 -57 -80 -15 -27 -49 -77 -75 -111 -25 -33 -50 -71 -54 -83 -10 -32
-150 -264 -196 -324 -77 -103 -144 -254 -174 -393 -15 -73 -16 -278 -15 -2558
1 -2267 2 -2484 17 -2530 26 -80 166 -280 268 -382 49 -51 126 -115 170 -144
128 -83 326 -174 510 -234 214 -69 197 -66 580 -127 28 -5 165 -11 305 -15
210 -5 273 -3 355 10 55 9 173 25 263 36 126 16 183 27 255 54 51 19 110 39
132 46 245 76 566 267 730 434 100 103 218 283 217 333 0 15 6 60 13 98 19 96
19 95 10 1645 -5 756 -7 1686 -6 2065 2 568 0 714 -13 825 -17 144 -18 150
-90 391 -54 182 -57 189 -187 457 -54 112 -99 206 -99 209 0 11 -180 310 -265
438 -321 488 -487 776 -598 1036 -75 175 -86 225 -103 434 -8 105 -19 215 -24
245 -5 30 -18 129 -29 220 -17 147 -19 224 -17 705 4 761 2 703 29 707 l22 3
3 262 2 261 -31 31 -31 31 3 104 c3 74 0 108 -10 119 -50 62 -436 102 -686 73z"/>
</g>
</svg>
